<svg xmlns="http://www.w3.org/2000/svg" width="19.32" height="16.44" viewBox="0 0 19.32 16.44">
  <path id="quote-mark-begin" d="M1.62-33.36v-3.21q0-1.59.06-3.03a16.594,16.594,0,0,1,1.47-7.53q1.41-2.61,5.13-2.67l.96,2.7a2.938,2.938,0,0,0-2.79,1.68,11.13,11.13,0,0,0-.69,4.38H9.48v7.68Zm11.46,0v-3.21q0-1.59.06-3.03a16.594,16.594,0,0,1,1.47-7.53q1.41-2.61,5.13-2.67l.96,2.7a2.938,2.938,0,0,0-2.79,1.68,11.13,11.13,0,0,0-.69,4.38h3.72v7.68Z" transform="translate(-1.62 49.8)" fill="#353a5d" opacity="0.1"/>
</svg>
