<svg xmlns="http://www.w3.org/2000/svg" width="19.26" height="16.5" viewBox="0 0 19.26 16.5">
  <path id="quote-mark-end" d="M4.8-32.1l-.9-2.76a2.773,2.773,0,0,0,2.76-1.62,11.79,11.79,0,0,0,.66-4.44H3.66V-48.6h7.8v3.21q0,1.59-.06,3.03a16.594,16.594,0,0,1-1.47,7.53Q8.52-32.22,4.8-32.1Zm11.46,0-.9-2.76a2.773,2.773,0,0,0,2.76-1.62,11.79,11.79,0,0,0,.66-4.44H15.12V-48.6h7.8v3.21q0,1.59-.06,3.03a16.594,16.594,0,0,1-1.47,7.53Q19.98-32.22,16.26-32.1Z" transform="translate(-3.66 48.6)" fill="#353a5d" opacity="0.1"/>
</svg>
